<svg width="30" height="35" viewBox="0 0 30 35" fill="none" xmlns="http://www.w3.org/2000/svg">
<path d="M30 14.0856C30 6.30631 23.2843 0 15 0C6.71572 0 0 6.30631 0 14.0856C0 21.1161 5.48528 26.9433 12.6563 28V18.1572H8.84767V14.0856H12.6563V10.9823C12.6563 7.45213 14.8956 5.50218 18.322 5.50218C19.9631 5.50218 21.6797 5.77728 21.6797 5.77728V9.24365H19.7882C17.9249 9.24365 17.3438 10.3294 17.3438 11.4433V14.0856H21.5039L20.8389 18.1572H17.3437V28C24.5147 26.9433 30 21.1161 30 14.0856" fill="#1877F2"/>
<path d="M21.1482 17.6924L21.8219 13.5015H17.6073V10.7818C17.6073 9.63523 18.196 8.51763 20.0838 8.51763H22V4.94967C22 4.94967 20.2609 4.6665 18.5983 4.6665C15.1271 4.6665 12.8584 6.67361 12.8584 10.3073V13.5015H9V17.6924H12.8584V27.8237C13.6439 27.9412 14.4378 28 15.2329 27.9998C16.0407 27.9998 16.8336 27.9395 17.6073 27.8237V17.6924H21.1482Z" fill="white"/>
</svg>
