<svg width="16" height="16" viewBox="0 0 16 16" fill="none" xmlns="http://www.w3.org/2000/svg">
<path d="M5.63997 7.52667L9.4133 3.76C9.47528 3.69752 9.54901 3.64792 9.63025 3.61408C9.71149 3.58023 9.79863 3.56281 9.88664 3.56281C9.97465 3.56281 10.0618 3.58023 10.143 3.61408C10.2243 3.64792 10.298 3.69752 10.36 3.76C10.4841 3.88491 10.5538 4.05388 10.5538 4.23C10.5538 4.40613 10.4841 4.5751 10.36 4.7L7.05997 8.03334L10.36 11.3333C10.4841 11.4582 10.5538 11.6272 10.5538 11.8033C10.5538 11.9795 10.4841 12.1484 10.36 12.2733C10.2982 12.3363 10.2246 12.3864 10.1433 12.4208C10.0621 12.4551 9.97484 12.473 9.88664 12.4733C9.79843 12.473 9.71118 12.4551 9.62993 12.4208C9.54868 12.3864 9.47505 12.3363 9.4133 12.2733L5.63997 8.50667C5.5723 8.44424 5.5183 8.36847 5.48136 8.28414C5.44442 8.19981 5.42535 8.10874 5.42535 8.01667C5.42535 7.9246 5.44442 7.83353 5.48136 7.7492C5.5183 7.66487 5.5723 7.5891 5.63997 7.52667Z" fill="black"/>
</svg>
