<svg width="40" height="40" viewBox="0 0 40 40" fill="none" xmlns="http://www.w3.org/2000/svg">
<path d="M8.33332 6.66669H31.6667C32.1087 6.66669 32.5326 6.84228 32.8452 7.15484C33.1577 7.4674 33.3333 7.89133 33.3333 8.33335V16.6667C33.3333 17.1087 33.1577 17.5326 32.8452 17.8452C32.5326 18.1578 32.1087 18.3334 31.6667 18.3334H20C19.558 18.3334 19.134 18.5089 18.8215 18.8215C18.5089 19.1341 18.3333 19.558 18.3333 20V31.6667C18.3333 32.1087 18.1577 32.5326 17.8452 32.8452C17.5326 33.1578 17.1087 33.3334 16.6667 33.3334H8.33332C7.8913 33.3334 7.46737 33.1578 7.15481 32.8452C6.84225 32.5326 6.66666 32.1087 6.66666 31.6667V8.33335C6.66666 7.89133 6.84225 7.4674 7.15481 7.15484C7.46737 6.84228 7.8913 6.66669 8.33332 6.66669" stroke="black" stroke-width="2.75" stroke-linecap="round" stroke-linejoin="round"/>
<path d="M6.66666 13.3333H9.99999" stroke="black" stroke-width="2.75" stroke-linecap="round" stroke-linejoin="round"/>
<path d="M6.66666 20H11.6667" stroke="black" stroke-width="2.75" stroke-linecap="round" stroke-linejoin="round"/>
<path d="M6.66666 26.6667H9.99999" stroke="black" stroke-width="2.75" stroke-linecap="round" stroke-linejoin="round"/>
<path d="M13.3333 6.66669V10" stroke="black" stroke-width="2.75" stroke-linecap="round" stroke-linejoin="round"/>
<path d="M20 6.66669V11.6667" stroke="black" stroke-width="2.75" stroke-linecap="round" stroke-linejoin="round"/>
<path d="M26.6667 6.66669V10" stroke="black" stroke-width="2.75" stroke-linecap="round" stroke-linejoin="round"/>
</svg>
