<svg width="16" height="16" viewBox="0 0 16 16" fill="none" xmlns="http://www.w3.org/2000/svg">
<path d="M10.36 7.52667L6.58666 3.76C6.52469 3.69752 6.45096 3.64792 6.36972 3.61408C6.28848 3.58023 6.20134 3.56281 6.11333 3.56281C6.02532 3.56281 5.93819 3.58023 5.85695 3.61408C5.77571 3.64792 5.70197 3.69752 5.64 3.76C5.51583 3.88491 5.44614 4.05388 5.44614 4.23C5.44614 4.40613 5.51583 4.5751 5.64 4.7L8.94 8.03334L5.64 11.3333C5.51583 11.4582 5.44614 11.6272 5.44614 11.8033C5.44614 11.9795 5.51583 12.1484 5.64 12.2733C5.70174 12.3363 5.77537 12.3864 5.85662 12.4208C5.93787 12.4551 6.02513 12.473 6.11333 12.4733C6.20154 12.473 6.28879 12.4551 6.37004 12.4208C6.45129 12.3864 6.52492 12.3363 6.58666 12.2733L10.36 8.50667C10.4277 8.44424 10.4817 8.36847 10.5186 8.28414C10.5556 8.19981 10.5746 8.10874 10.5746 8.01667C10.5746 7.9246 10.5556 7.83353 10.5186 7.7492C10.4817 7.66487 10.4277 7.5891 10.36 7.52667Z" fill="black"/>
</svg>
